REM DIRINDEX 1\5,1\2\6,1\2\7,1\3\8,1\3\9,1\4\10,1\4\11,1\4\12
REM DIRNAME folder01,folder02,folder03,folder04,folder05,folder06,folder07,folder08,folder09,folder10,folder11,folder12
TITLE ""
FILE "JE_DB3000_5th_6C_47.mp3" MP3
  TRACK 01 AUDIO
    TITLE "0:"
    INDEX 01 00:00:00
  TRACK 02 AUDIO
    TITLE "6:cjc026_03329"
    INDEX 01 00:00:05
  TRACK 03 AUDIO
    TITLE "0:"
    INDEX 01 00:01:21
  TRACK 04 AUDIO
    TITLE "7:cjc026_03330"
    INDEX 01 00:01:44
  TRACK 05 AUDIO
    TITLE "0:"
    INDEX 01 00:02:73
  TRACK 06 AUDIO
    TITLE "6:cjc026_03331"
    INDEX 01 00:03:21
  TRACK 07 AUDIO
    TITLE "0:"
    INDEX 01 00:04:56
  TRACK 08 AUDIO
    TITLE "7:cjc026_03332"
    INDEX 01 00:05:07
  TRACK 09 AUDIO
    TITLE "0:"
    INDEX 01 00:06:65
  TRACK 10 AUDIO
    TITLE "6:cjc026_03333"
    INDEX 01 00:07:13
  TRACK 11 AUDIO
    TITLE "0:"
    INDEX 01 00:08:56
  TRACK 12 AUDIO
    TITLE "7:cjc026_03334"
    INDEX 01 00:09:08
  TRACK 13 AUDIO
    TITLE "0:"
    INDEX 01 00:10:08
  TRACK 14 AUDIO
    TITLE "6:cjc026_03335"
    INDEX 01 00:10:31
  TRACK 15 AUDIO
    TITLE "0:"
    INDEX 01 00:11:44
  TRACK 16 AUDIO
    TITLE "7:cjc026_03336"
    INDEX 01 00:11:70
  TRACK 17 AUDIO
    TITLE "0:"
    INDEX 01 00:12:71
  TRACK 18 AUDIO
    TITLE "6:cjc026_03337"
    INDEX 01 00:13:22
  TRACK 19 AUDIO
    TITLE "0:"
    INDEX 01 00:14:27
  TRACK 20 AUDIO
    TITLE "7:cjc026_03338"
    INDEX 01 00:14:51
  TRACK 21 AUDIO
    TITLE "0:"
    INDEX 01 00:15:60
  TRACK 22 AUDIO
    TITLE "6:cjc026_03339"
    INDEX 01 00:16:08
  TRACK 23 AUDIO
    TITLE "0:"
    INDEX 01 00:17:12
  TRACK 24 AUDIO
    TITLE "7:cjc026_03340"
    INDEX 01 00:17:35
  TRACK 25 AUDIO
    TITLE "0:"
    INDEX 01 00:18:33
  TRACK 26 AUDIO
    TITLE "6:cjc026_03341"
    INDEX 01 00:18:56
  TRACK 27 AUDIO
    TITLE "0:"
    INDEX 01 00:20:00
  TRACK 28 AUDIO
    TITLE "7:cjc026_03342"
    INDEX 01 00:20:24
  TRACK 29 AUDIO
    TITLE "0:"
    INDEX 01 00:21:21
  TRACK 30 AUDIO
    TITLE "6:cjc026_03343"
    INDEX 01 00:21:47
  TRACK 31 AUDIO
    TITLE "0:"
    INDEX 01 00:22:56
  TRACK 32 AUDIO
    TITLE "7:cjc026_03344"
    INDEX 01 00:23:04
  TRACK 33 AUDIO
    TITLE "0:"
    INDEX 01 00:24:24
  TRACK 34 AUDIO
    TITLE "6:cjc026_03345"
    INDEX 01 00:24:47
  TRACK 35 AUDIO
    TITLE "0:"
    INDEX 01 00:25:66
  TRACK 36 AUDIO
    TITLE "7:cjc026_03346"
    INDEX 01 00:26:17
  TRACK 37 AUDIO
    TITLE "0:"
    INDEX 01 00:27:26
  TRACK 38 AUDIO
    TITLE "6:cjc026_03347"
    INDEX 01 00:27:49
  TRACK 39 AUDIO
    TITLE "0:"
    INDEX 01 00:28:62
  TRACK 40 AUDIO
    TITLE "7:cjc026_03348"
    INDEX 01 00:29:11
  TRACK 41 AUDIO
    TITLE "0:"
    INDEX 01 00:30:14
  TRACK 42 AUDIO
    TITLE "6:cjc026_03349"
    INDEX 01 00:30:38
  TRACK 43 AUDIO
    TITLE "0:"
    INDEX 01 00:31:43
  TRACK 44 AUDIO
    TITLE "7:cjc026_03350"
    INDEX 01 00:31:67
  TRACK 45 AUDIO
    TITLE "0:"
    INDEX 01 00:32:50
  TRACK 46 AUDIO
    TITLE "6:cjc026_03351"
    INDEX 01 00:33:01
  TRACK 47 AUDIO
    TITLE "0:"
    INDEX 01 00:33:71
  TRACK 48 AUDIO
    TITLE "7:cjc026_03352"
    INDEX 01 00:34:18
  TRACK 49 AUDIO
    TITLE "0:"
    INDEX 01 00:35:29
  TRACK 50 AUDIO
    TITLE "6:cjc026_03353"
    INDEX 01 00:35:51
  TRACK 51 AUDIO
    TITLE "0:"
    INDEX 01 00:37:10
  TRACK 52 AUDIO
    TITLE "7:cjc026_03354"
    INDEX 01 00:37:36
  TRACK 53 AUDIO
    TITLE "0:"
    INDEX 01 00:38:53
  TRACK 54 AUDIO
    TITLE "6:cjc026_03355"
    INDEX 01 00:39:02
  TRACK 55 AUDIO
    TITLE "0:"
    INDEX 01 00:39:74
  TRACK 56 AUDIO
    TITLE "7:cjc026_03356"
    INDEX 01 00:40:21
  TRACK 57 AUDIO
    TITLE "0:"
    INDEX 01 00:41:30
  TRACK 58 AUDIO
    TITLE "6:cjc026_03357"
    INDEX 01 00:41:55
  TRACK 59 AUDIO
    TITLE "0:"
    INDEX 01 00:42:49
  TRACK 60 AUDIO
    TITLE "7:cjc026_03358"
    INDEX 01 00:42:74
  TRACK 61 AUDIO
    TITLE "0:"
    INDEX 01 00:43:66
  TRACK 62 AUDIO
    TITLE "6:cjc026_03359"
    INDEX 01 00:44:16
  TRACK 63 AUDIO
    TITLE "0:"
    INDEX 01 00:45:24
  TRACK 64 AUDIO
    TITLE "7:cjc026_03360"
    INDEX 01 00:45:47
  TRACK 65 AUDIO
    TITLE "0:"
    INDEX 01 00:46:53
